<svg id="visual" viewBox="0 0 960 50" width="960" height="50" xmlns="http://www.w3.org/2000/svg" xmlns:xlink="http://www.w3.org/1999/xlink" version="1.1"><rect x="0" y="0" width="960" height="50" fill="#ffffff"></rect><path d="M0 15L14.5 13.7C29 12.3 58 9.7 87.2 8.5C116.3 7.3 145.7 7.7 174.8 8.7C204 9.7 233 11.3 262 12.5C291 13.7 320 14.3 349 13.2C378 12 407 9 436.2 8.7C465.3 8.3 494.7 10.7 523.8 11.7C553 12.7 582 12.3 611 13C640 13.7 669 15.3 698 14.2C727 13 756 9 785.2 7C814.3 5 843.7 5 872.8 6C902 7 931 9 945.5 10L960 11L960 51L945.5 51C931 51 902 51 872.8 51C843.7 51 814.3 51 785.2 51C756 51 727 51 698 51C669 51 640 51 611 51C582 51 553 51 523.8 51C494.7 51 465.3 51 436.2 51C407 51 378 51 349 51C320 51 291 51 262 51C233 51 204 51 174.8 51C145.7 51 116.3 51 87.2 51C58 51 29 51 14.5 51L0 51Z" fill="#f2c84c"></path><path d="M0 30L14.5 29.2C29 28.3 58 26.7 87.2 26.7C116.3 26.7 145.7 28.3 174.8 28C204 27.7 233 25.3 262 23.8C291 22.3 320 21.7 349 21.8C378 22 407 23 436.2 22.3C465.3 21.7 494.7 19.3 523.8 18.7C553 18 582 19 611 19.7C640 20.3 669 20.7 698 22C727 23.3 756 25.7 785.2 27.2C814.3 28.7 843.7 29.3 872.8 28.3C902 27.3 931 24.7 945.5 23.3L960 22L960 51L945.5 51C931 51 902 51 872.8 51C843.7 51 814.3 51 785.2 51C756 51 727 51 698 51C669 51 640 51 611 51C582 51 553 51 523.8 51C494.7 51 465.3 51 436.2 51C407 51 378 51 349 51C320 51 291 51 262 51C233 51 204 51 174.8 51C145.7 51 116.3 51 87.2 51C58 51 29 51 14.5 51L0 51Z" fill="#f4b048"></path><path d="M0 31L14.5 32.5C29 34 58 37 87.2 38.2C116.3 39.3 145.7 38.7 174.8 39.2C204 39.7 233 41.3 262 40.3C291 39.3 320 35.7 349 35.3C378 35 407 38 436.2 39.8C465.3 41.7 494.7 42.3 523.8 41C553 39.7 582 36.3 611 35.5C640 34.7 669 36.3 698 36.7C727 37 756 36 785.2 36.7C814.3 37.3 843.7 39.7 872.8 39.3C902 39 931 36 945.5 34.5L960 33L960 51L945.5 51C931 51 902 51 872.8 51C843.7 51 814.3 51 785.2 51C756 51 727 51 698 51C669 51 640 51 611 51C582 51 553 51 523.8 51C494.7 51 465.3 51 436.2 51C407 51 378 51 349 51C320 51 291 51 262 51C233 51 204 51 174.8 51C145.7 51 116.3 51 87.2 51C58 51 29 51 14.5 51L0 51Z" fill="#f2984a"></path></svg>