<svg id="visual" viewBox="0 0 960 50" width="960" height="50" xmlns="http://www.w3.org/2000/svg" xmlns:xlink="http://www.w3.org/1999/xlink" version="1.1"><rect x="0" y="0" width="960" height="50" fill="#ffffff"></rect><path d="M0 7L14.5 6.8C29 6.7 58 6.3 87.2 8.7C116.3 11 145.7 16 174.8 18.7C204 21.3 233 21.7 262 21C291 20.3 320 18.7 349 17.5C378 16.3 407 15.7 436.2 16.2C465.3 16.7 494.7 18.3 523.8 19.5C553 20.7 582 21.3 611 19.2C640 17 669 12 698 12.5C727 13 756 19 785.2 21.3C814.3 23.7 843.7 22.3 872.8 20.8C902 19.3 931 17.7 945.5 16.8L960 16L960 51L945.5 51C931 51 902 51 872.8 51C843.7 51 814.3 51 785.2 51C756 51 727 51 698 51C669 51 640 51 611 51C582 51 553 51 523.8 51C494.7 51 465.3 51 436.2 51C407 51 378 51 349 51C320 51 291 51 262 51C233 51 204 51 174.8 51C145.7 51 116.3 51 87.2 51C58 51 29 51 14.5 51L0 51Z" fill="#f2c84c"></path><path d="M0 27L14.5 25.7C29 24.3 58 21.7 87.2 21.2C116.3 20.7 145.7 22.3 174.8 22.8C204 23.3 233 22.7 262 22.3C291 22 320 22 349 22.2C378 22.3 407 22.7 436.2 22.2C465.3 21.7 494.7 20.3 523.8 21.8C553 23.3 582 27.7 611 29.3C640 31 669 30 698 29.7C727 29.3 756 29.7 785.2 28C814.3 26.3 843.7 22.7 872.8 20.3C902 18 931 17 945.5 16.5L960 16L960 51L945.5 51C931 51 902 51 872.8 51C843.7 51 814.3 51 785.2 51C756 51 727 51 698 51C669 51 640 51 611 51C582 51 553 51 523.8 51C494.7 51 465.3 51 436.2 51C407 51 378 51 349 51C320 51 291 51 262 51C233 51 204 51 174.8 51C145.7 51 116.3 51 87.2 51C58 51 29 51 14.5 51L0 51Z" fill="#f4b048"></path><path d="M0 44L14.5 43.7C29 43.3 58 42.7 87.2 42.7C116.3 42.7 145.7 43.3 174.8 41.8C204 40.3 233 36.7 262 34.3C291 32 320 31 349 30.3C378 29.7 407 29.3 436.2 29.7C465.3 30 494.7 31 523.8 33.2C553 35.3 582 38.7 611 39.5C640 40.3 669 38.7 698 37.3C727 36 756 35 785.2 35.2C814.3 35.3 843.7 36.7 872.8 37.7C902 38.7 931 39.3 945.5 39.7L960 40L960 51L945.5 51C931 51 902 51 872.8 51C843.7 51 814.3 51 785.2 51C756 51 727 51 698 51C669 51 640 51 611 51C582 51 553 51 523.8 51C494.7 51 465.3 51 436.2 51C407 51 378 51 349 51C320 51 291 51 262 51C233 51 204 51 174.8 51C145.7 51 116.3 51 87.2 51C58 51 29 51 14.5 51L0 51Z" fill="#f2984a"></path></svg>